# xmcd CD database file
#
# Track frame offsets:
#	150
#	15089
#	28568
#	41762
#	54165
#	66644
#	78947
#	91522
#	105214
#	118401
#	132743
#	147872
#	160304
#	174420
#	191488
#	204752
#	217812
#	231316
#	243154
#	256164
#	268525
#
# Disc length: 3771 seconds
#
# Revision: 0
# Processed by: cddbd v1.5.2PL0 Copyright (c) Steve Scherf et al.
# Submitted via: CDex 1.51
#
DISCID=100eb915
DTITLE=Louis Armstrong and the big bands - Une Anthologie 1945 - 1955 CD 2/2
DYEAR=2006
DGENRE=Jazz
TTITLE0=When It's Sleepy Time Down South
TTITLE1=I Laughed At Love
TTITLE2=Takes Two To Tango
TTITLE3=Your Cheatin' Heart
TTITLE4=Congratulations To Someone
TTITLE5=April In Portugal
TTITLE6=Ramona
TTITLE7=Sittin' In The Sun
TTITLE8=Cool Yule
TTITLE9=Someday You'll Be Sorry
TTITLE10=The Gypsy
TTITLE11=I Can't Afford To Miss This Dream
TTITLE12=Bye And Bye
TTITLE13=Skokiaan (South African Song)
TTITLE14=Struttin' With Some Barbecue
TTITLE15=Ko-Ko-Mo
TTITLE16=Sincerely
TTITLE17=Pledging My Love
TTITLE18=Christmas in New Orleans
TTITLE19=Christmas Night in Harlem
TTITLE20=Only You
EXTD=YEAR: 2006
EXTT0=
EXTT1=
EXTT2=
EXTT3=
EXTT4=
EXTT5=
EXTT6=
EXTT7=
EXTT8=
EXTT9=
EXTT10=
EXTT11=
EXTT12=
EXTT13=
EXTT14=
EXTT15=
EXTT16=
EXTT17=
EXTT18=
EXTT19=
EXTT20=
PLAYORDER=
